<svg id="Layer_1" data-name="Layer 1" xmlns="http://www.w3.org/2000/svg" viewBox="0 0 696.77 193.15"><defs><style>.cls-1{fill:#555;}</style></defs><title>Artboard 14</title><path class="cls-1" d="M139,42.92a21.46,21.46,0,1,0-21.45-21.47h0A21.45,21.45,0,0,0,139,42.92Z"/><path class="cls-1" d="M161.29,57.07H62.71V50.62c0-12.65,12.65-12.9,19.1-12.9a54.68,54.68,0,0,1,10.84.77V3.38a113.6,113.6,0,0,0-15.75-1C56.26,2.34,18.07,8,18.07,51.65v5.42H0V89.35H18.07v68.41H1.29V190h81V157.76H62.71V89.35h53.94v68.41H99.87V190h78.2V157.76H161.29Z"/><path class="cls-1" d="M329.17,57.07H258.45V89.35h11.87l-15.22,48a80.86,80.86,0,0,0-3.62,17.55h-1a80.85,80.85,0,0,0-3.61-17.55l-15.22-48h11.86V57.07H172.77V89.35h15L224.65,190h52.64L314.2,89.35h15Z"/><path class="cls-1" d="M460,118.26C460,81.34,437.84,54,398.1,54c-42.84,0-69.17,30.46-69.17,69.44,0,35.37,25.55,69.71,73,69.71,35.87,0,57.29-18.59,57.29-18.59l-16.26-31s-17.81,12.65-37.42,12.65c-14.19,0-27.61-7.49-31-24.52H459S460,122.65,460,118.26Zm-84.39-11.1c2.33-10.33,8.52-19.62,21.42-19.62,9.81,0,16.78,9,16.78,19.62Z"/><path class="cls-1" d="M691.64,54.75c-19.87,0-36.64,15-42.32,33.05h-.51a37.71,37.71,0,0,0,.51-6.71v-7C649.32,62,642.61,57,630.48,57H588.41V89.35h12.4c3.6,0,5.67,2.06,5.67,5.68v62.73H588.41V190h80.78V157.76H651.13V138.4c0-24.27,11.87-40,36.64-40a47.64,47.64,0,0,1,9,.77V55.27A29.45,29.45,0,0,0,691.64,54.75Z"/><path class="cls-1" d="M531,87.8h-.53a36.81,36.81,0,0,0,.53-6.71v-7C531,62,524.28,57,512.15,57H470.08V89.35h12.39c3.61,0,5.67,2.06,5.67,5.68v62.73H470.08V190h80.77V157.76H532.79V138.4c0-24.27,11.87-40,36.65-40a47.64,47.64,0,0,1,9,.77V55.27a29.79,29.79,0,0,0-5.16-.52C553.43,54.75,536.66,69.73,531,87.8Z"/></svg>