<svg xmlns="http://www.w3.org/2000/svg" xmlns:xlink="http://www.w3.org/1999/xlink" style="margin:auto;background:rgba(NaN, NaN, NaN, 0);display:block;z-index:1;position:relative" width="1353" height="977" preserveAspectRatio="xMidYMid" viewBox="0 0 1353 977">
<g transform=""><path id="path0" d="M 1113.0729101845934 782.0047805305294
c 0 35.286268231364815 -8.633874141716923 10.135417470711172 -18.769291612428095 10.135417470711172
S 1075.5343269597372 817.2910487618942 1075.5343269597372 782.0047805305294
s 8.633874141716923 -10.135417470711172 18.769291612428095 -10.135417470711172
S 1113.0729101845934 746.7185122991646 1113.0729101845934 782.0047805305294
z" fill="none" stroke="none"></path>
<circle cx="0" cy="0" r="5.227661591500517" fill="#aaff00">
  <animateMotion begin="-0.5069659087175596s" dur="17.3s" repeatCount="indefinite">
    <mpath xlink:href="#path0"></mpath>
  </animateMotion>
</circle><path id="path1" d="M 676.9639582823816 388.19239806394626
c 0 24.865166404047237 -6.084030077586025 7.142122264992292 -13.226152342578317 7.142122264992292
S 650.511653597225 413.0575644679935 650.511653597225 388.19239806394626
s 6.084030077586025 -7.142122264992292 13.226152342578317 -7.142122264992292
S 676.9639582823816 363.32723165989904 676.9639582823816 388.19239806394626
z" fill="none" stroke="none"></path>
<circle cx="0" cy="0" r="4.461623199315698" fill="#aaff00">
  <animateMotion begin="-2.683824250968922s" dur="17.3s" repeatCount="indefinite">
    <mpath xlink:href="#path1"></mpath>
  </animateMotion>
</circle><path id="path2" d="M 423.23079860417243 786.6494286500946
c 0 27.6589818591104 -6.76762322084616 7.944601172297668 -14.71222439314383 7.944601172297668
S 393.8063498178847 814.308410509205 393.8063498178847 786.6494286500946
s 6.76762322084616 -7.944601172297668 14.71222439314383 -7.944601172297668
S 423.23079860417243 758.9904467909842 423.23079860417243 786.6494286500946
z" fill="none" stroke="none"></path>
<circle cx="0" cy="0" r="3.316476778760491" fill="#aaff00">
  <animateMotion begin="-4.161110967725194s" dur="17.3s" repeatCount="indefinite">
    <mpath xlink:href="#path2"></mpath>
  </animateMotion>
</circle><path id="path3" d="M 1259.279842132206 286.1776710947892
c 0 34.07746059997989 -8.338102061697207 9.78820676807933 -18.126308829776537 9.78820676807933
S 1223.0272244726532 320.2551316947691 1223.0272244726532 286.1776710947892
s 8.338102061697207 -9.78820676807933 18.126308829776537 -9.78820676807933
S 1259.279842132206 252.10021049480935 1259.279842132206 286.1776710947892
z" fill="none" stroke="none"></path>
<circle cx="0" cy="0" r="4.649393636395086" fill="#f7ff00">
  <animateMotion begin="-14.984134459683592s" dur="17.3s" repeatCount="indefinite">
    <mpath xlink:href="#path3"></mpath>
  </animateMotion>
</circle><path id="path4" d="M 433.6990364597868 918.6615757655802
c 0 24.389524822287488 -5.967649690559704 7.005501810657044 -12.973151501216748 7.005501810657044
S 407.75273345735326 943.0511005878677 407.75273345735326 918.6615757655802
s 5.967649690559704 -7.005501810657044 12.973151501216748 -7.005501810657044
S 433.6990364597868 894.2720509432927 433.6990364597868 918.6615757655802
z" fill="none" stroke="none"></path>
<circle cx="0" cy="0" r="4.392533726465605" fill="#00e5ff">
  <animateMotion begin="-2.947540080165693s" dur="17.3s" repeatCount="indefinite">
    <mpath xlink:href="#path4"></mpath>
  </animateMotion>
</circle><path id="path5" d="M 1082.6868018930625 532.2650426501523
c 0 24.65218798877955 -6.031918337680102 7.080947613798381 -13.112865951478483 7.080947613798381
S 1056.4610699901057 556.9172306389319 1056.4610699901057 532.2650426501523
s 6.031918337680102 -7.080947613798381 13.112865951478483 -7.080947613798381
S 1082.6868018930625 507.61285466137275 1082.6868018930625 532.2650426501523
z" fill="none" stroke="none"></path>
<circle cx="0" cy="0" r="4.2146660609335065" fill="#aaff00">
  <animateMotion begin="-5.682821815050774s" dur="17.3s" repeatCount="indefinite">
    <mpath xlink:href="#path5"></mpath>
  </animateMotion>
</circle><path id="path6" d="M 624.5060053241696 19.32713527519642
c 0 28.966805284052068 -7.087622569502101 8.320252581589424 -15.407875151091526 8.320252581589424
S 593.6902550219866 48.29394055924848 593.6902550219866 19.32713527519642
s 7.087622569502101 -8.320252581589424 15.407875151091526 -8.320252581589424
S 624.5060053241696 -9.63967000885565 624.5060053241696 19.32713527519642
z" fill="none" stroke="none"></path>
<circle cx="0" cy="0" r="3.458713648753635" fill="#00e5ff">
  <animateMotion begin="-10.258521222262043s" dur="17.3s" repeatCount="indefinite">
    <mpath xlink:href="#path6"></mpath>
  </animateMotion>
</circle><path id="path7" d="M 907.0700323381569 440.05728099911494
c 0 20.861488711803304 -5.10440681246251 5.992129736369034 -11.096536548831544 5.992129736369034
S 884.8769592404939 460.91876971091824 884.8769592404939 440.05728099911494
s 5.10440681246251 -5.992129736369034 11.096536548831544 -5.992129736369034
S 907.0700323381569 419.19579228731163 907.0700323381569 440.05728099911494
z" fill="none" stroke="none"></path>
<circle cx="0" cy="0" r="4.7949784828806035" fill="#aaff00">
  <animateMotion begin="-9.713357992319024s" dur="17.3s" repeatCount="indefinite">
    <mpath xlink:href="#path7"></mpath>
  </animateMotion>
</circle><path id="path8" d="M 362.801009693371 278.4753974922639
c 0 25.837320942655094 -6.321897677458161 7.421358143103059 -13.74325582056122 7.421358143103059
S 335.31449805224855 304.31271843491896 335.31449805224855 278.4753974922639
s 6.321897677458161 -7.421358143103059 13.74325582056122 -7.421358143103059
S 362.801009693371 252.6380765496088 362.801009693371 278.4753974922639
z" fill="none" stroke="none"></path>
<circle cx="0" cy="0" r="3.8131321555404183" fill="#f7ff00">
  <animateMotion begin="-0.15406988582981032s" dur="17.3s" repeatCount="indefinite">
    <mpath xlink:href="#path8"></mpath>
  </animateMotion>
</circle><path id="path9" d="M 1101.7938226783672 113.43400660155845
c 0 28.436272594728752 -6.9578113795612895 8.167865532528472 -15.12567691208976 8.167865532528472
S 1071.5424688541875 141.8702791962872 1071.5424688541875 113.43400660155845
s 6.9578113795612895 -8.167865532528472 15.12567691208976 -8.167865532528472
S 1101.7938226783672 84.9977340068297 1101.7938226783672 113.43400660155845
z" fill="none" stroke="none"></path>
<circle cx="0" cy="0" r="5.125213543024472" fill="#f7ff00">
  <animateMotion begin="-1.6586044975103105s" dur="17.3s" repeatCount="indefinite">
    <mpath xlink:href="#path9"></mpath>
  </animateMotion>
</circle><path id="path10" d="M 352.84174308819576 293.636830174168
c 0 19.18207160583447 -4.693485605682902 5.509743971888625 -10.203229577571527 5.509743971888625
S 332.43528393305274 312.8189017800025 332.43528393305274 293.636830174168
s 4.693485605682902 -5.509743971888625 10.203229577571527 -5.509743971888625
S 352.84174308819576 274.4547585683335 352.84174308819576 293.636830174168
z" fill="none" stroke="none"></path>
<circle cx="0" cy="0" r="5.019936742562562" fill="#aaff00">
  <animateMotion begin="-6.207930450702814s" dur="17.3s" repeatCount="indefinite">
    <mpath xlink:href="#path10"></mpath>
  </animateMotion>
</circle><path id="path11" d="M 675.7027429767712 515.8995483760568
c 0 33.10088020729569 -8.099151540082987 9.507699634010464 -17.606851174093453 9.507699634010464
S 640.4890406285843 549.0004285833525 640.4890406285843 515.8995483760568
s 8.099151540082987 -9.507699634010464 17.606851174093453 -9.507699634010464
S 675.7027429767712 482.79866816876114 675.7027429767712 515.8995483760568
z" fill="none" stroke="none"></path>
<circle cx="0" cy="0" r="3.933402490760628" fill="#cc00ff">
  <animateMotion begin="-3.8860221697841504s" dur="17.3s" repeatCount="indefinite">
    <mpath xlink:href="#path11"></mpath>
  </animateMotion>
</circle><path id="path12" d="M 46.468985084727606 656.2658211595218
c 0 23.302070688883052 -5.7015704877054265 6.69314796382811 -12.394718451533537 6.69314796382811
S 21.679548181660536 679.5678918484049 21.679548181660536 656.2658211595218
s 5.7015704877054265 -6.69314796382811 12.394718451533537 -6.69314796382811
S 46.468985084727606 632.9637504706387 46.468985084727606 656.2658211595218
z" fill="none" stroke="none"></path>
<circle cx="0" cy="0" r="3.678784905037973" fill="#aaff00">
  <animateMotion begin="-5.914792780276612s" dur="17.3s" repeatCount="indefinite">
    <mpath xlink:href="#path12"></mpath>
  </animateMotion>
</circle><path id="path13" d="M 305.89549018601815 199.8423951678981
c 0 31.520620855430998 -7.712492336967158 9.053795352091882 -16.76628768905904 9.053795352091882
S 272.3629148079001 231.3630160233291 272.3629148079001 199.8423951678981
s 7.712492336967158 -9.053795352091882 16.76628768905904 -9.053795352091882
S 305.89549018601815 168.3217743124671 305.89549018601815 199.8423951678981
z" fill="none" stroke="none"></path>
<circle cx="0" cy="0" r="5.376852923332354" fill="#cc00ff">
  <animateMotion begin="-12.222567841997844s" dur="17.3s" repeatCount="indefinite">
    <mpath xlink:href="#path13"></mpath>
  </animateMotion>
</circle><path id="path14" d="M 654.886619926184 614.9763460351488
c 0 23.802096622669612 -5.823917258738309 6.836772434171059 -12.660689692909369 6.836772434171059
S 629.5652405403653 638.7784426578185 629.5652405403653 614.9763460351488
s 5.823917258738309 -6.836772434171059 12.660689692909369 -6.836772434171059
S 654.886619926184 591.1742494124792 654.886619926184 614.9763460351488
z" fill="none" stroke="none"></path>
<circle cx="0" cy="0" r="2.9913563572062425" fill="#cc00ff">
  <animateMotion begin="-12.1043303067743s" dur="17.3s" repeatCount="indefinite">
    <mpath xlink:href="#path14"></mpath>
  </animateMotion>
</circle><path id="path15" d="M 802.3801205356721 782.2103399988075
c 0 20.154488729430028 -4.931417455073304 5.789055273346923 -10.720472728420226 5.789055273346923
S 780.9391750788317 802.3648287282375 780.9391750788317 782.2103399988075
s 4.931417455073304 -5.789055273346923 10.720472728420226 -5.789055273346923
S 802.3801205356721 762.0558512693775 802.3801205356721 782.2103399988075
z" fill="none" stroke="none"></path>
<circle cx="0" cy="0" r="3.5543208601164205" fill="#f7ff00">
  <animateMotion begin="-12.908774559151896s" dur="17.3s" repeatCount="indefinite">
    <mpath xlink:href="#path15"></mpath>
  </animateMotion>
</circle><path id="path16" d="M 1311.531437787577 108.39997493557416
c 0 23.230825549224807 -5.684138166299686 6.672683934351806 -12.356822100651492 6.672683934351806
S 1286.817793586274 131.63080048479898 1286.817793586274 108.39997493557416
s 5.684138166299686 -6.672683934351806 12.356822100651492 -6.672683934351806
S 1311.531437787577 85.16914938634936 1311.531437787577 108.39997493557416
z" fill="none" stroke="none"></path>
<circle cx="0" cy="0" r="3.6052567387522325" fill="#cc00ff">
  <animateMotion begin="-3.427048802236158s" dur="17.3s" repeatCount="indefinite">
    <mpath xlink:href="#path16"></mpath>
  </animateMotion>
</circle><path id="path17" d="M 350.2234601941611 455.15450338896386
c 0 32.04236474769676 -7.8401530765641 9.203657959444813 -17.043811036008915 9.203657959444813
S 316.1358381221433 487.1968681366606 316.1358381221433 455.15450338896386
s 7.8401530765641 -9.203657959444813 17.043811036008915 -9.203657959444813
S 350.2234601941611 423.1121386412671 350.2234601941611 455.15450338896386
z" fill="none" stroke="none"></path>
<circle cx="0" cy="0" r="3.487291406814978" fill="#00e5ff">
  <animateMotion begin="-2.816574036937155s" dur="17.3s" repeatCount="indefinite">
    <mpath xlink:href="#path17"></mpath>
  </animateMotion>
</circle><path id="path18" d="M 123.94951144035217 79.91796778743382
c 0 19.13316987515922 -4.681520288602788 5.495697730098925 -10.177218018701712 5.495697730098925
S 103.59507540294875 99.05113766259305 103.59507540294875 79.91796778743382
s 4.681520288602788 -5.495697730098925 10.177218018701712 -5.495697730098925
S 123.94951144035217 60.784797912274605 123.94951144035217 79.91796778743382
z" fill="none" stroke="none"></path>
<circle cx="0" cy="0" r="4.2455225513935995" fill="#cc00ff">
  <animateMotion begin="-10.65548029437183s" dur="17.3s" repeatCount="indefinite">
    <mpath xlink:href="#path18"></mpath>
  </animateMotion>
</circle><path id="path19" d="M 888.8893115766025 552.9420772142583
c 0 24.853494966035935 -6.081174300200281 7.138769830669896 -13.219944130870179 7.138769830669896
S 862.4494233148621 577.7955721802942 862.4494233148621 552.9420772142583
s 6.081174300200281 -7.138769830669896 13.219944130870179 -7.138769830669896
S 888.8893115766025 528.0885822482225 888.8893115766025 552.9420772142583
z" fill="none" stroke="none"></path>
<circle cx="0" cy="0" r="5.496433705919573" fill="#cc00ff">
  <animateMotion begin="-2.586263747336098s" dur="17.3s" repeatCount="indefinite">
    <mpath xlink:href="#path19"></mpath>
  </animateMotion>
</circle><path id="path20" d="M 439.2978018762624 264.77973623512236
c 0 34.26579073562695 -8.384182839568297 9.842301594275828 -18.226484433844124 9.842301594275828
S 402.84483300857414 299.0455269707493 402.84483300857414 264.77973623512236
s 8.384182839568297 -9.842301594275828 18.226484433844124 -9.842301594275828
S 439.2978018762624 230.5139454994954 439.2978018762624 264.77973623512236
z" fill="none" stroke="none"></path>
<circle cx="0" cy="0" r="4.9304886814586215" fill="#cc00ff">
  <animateMotion begin="-2.0424215509721413s" dur="17.3s" repeatCount="indefinite">
    <mpath xlink:href="#path20"></mpath>
  </animateMotion>
</circle><path id="path21" d="M 675.7300080877552 705.6387995812053
c 0 23.62491103065452 -5.780563337287807 6.785878700294384 -12.56644203758219 6.785878700294384
S 650.5971240125908 729.2637106118598 650.5971240125908 705.6387995812053
s 5.780563337287807 -6.785878700294384 12.56644203758219 -6.785878700294384
S 675.7300080877552 682.0138885505507 675.7300080877552 705.6387995812053
z" fill="none" stroke="none"></path>
<circle cx="0" cy="0" r="4.6155951554336925" fill="#00e5ff">
  <animateMotion begin="-9.127009133166313s" dur="17.3s" repeatCount="indefinite">
    <mpath xlink:href="#path21"></mpath>
  </animateMotion>
</circle><path id="path22" d="M 1108.569906563512 608.2026350278949
c 0 35.351949518797106 -8.649945095024824 10.154283372420446 -18.80422846744527 10.154283372420446
S 1070.9614496286215 643.554584546692 1070.9614496286215 608.2026350278949
s 8.649945095024824 -10.154283372420446 18.80422846744527 -10.154283372420446
S 1108.569906563512 572.8506855090977 1108.569906563512 608.2026350278949
z" fill="none" stroke="none"></path>
<circle cx="0" cy="0" r="4.878776449433419" fill="#00e5ff">
  <animateMotion begin="-10.73400768494842s" dur="17.3s" repeatCount="indefinite">
    <mpath xlink:href="#path22"></mpath>
  </animateMotion>
</circle><path id="path23" d="M 576.1911246026445 638.2755877753159
c 0 28.644478760923544 -7.008755441502568 8.227669431329103 -15.236424872831671 8.227669431329103
S 545.7182748569812 666.9200665362395 545.7182748569812 638.2755877753159
s 7.008755441502568 -8.227669431329103 15.236424872831671 -8.227669431329103
S 576.1911246026445 609.6311090143923 576.1911246026445 638.2755877753159
z" fill="none" stroke="none"></path>
<circle cx="0" cy="0" r="3.8311407061224503" fill="#aaff00">
  <animateMotion begin="-0.32691038934015687s" dur="17.3s" repeatCount="indefinite">
    <mpath xlink:href="#path23"></mpath>
  </animateMotion>
</circle><path id="path24" d="M 710.6873503784896 232.62737155991604
c 0 19.832875345791965 -4.852724818651225 5.696676961025352 -10.549401779676577 5.696676961025352
S 689.5885468191364 252.460246905708 689.5885468191364 232.62737155991604
s 4.852724818651225 -5.696676961025352 10.549401779676577 -5.696676961025352
S 710.6873503784896 212.79449621412408 710.6873503784896 232.62737155991604
z" fill="none" stroke="none"></path>
<circle cx="0" cy="0" r="3.667815762783635" fill="#cc00ff">
  <animateMotion begin="-1.9294178386732175s" dur="17.3s" repeatCount="indefinite">
    <mpath xlink:href="#path24"></mpath>
  </animateMotion>
</circle><path id="path25" d="M 312.2653340081487 589.8791051917887
c 0 23.680866562151557 -5.794254584356231 6.80195103380949 -12.59620561816572 6.80195103380949
S 287.07292277181733 613.5599717539402 287.07292277181733 589.8791051917887
s 5.794254584356231 -6.80195103380949 12.59620561816572 -6.80195103380949
S 312.2653340081487 566.1982386296371 312.2653340081487 589.8791051917887
z" fill="none" stroke="none"></path>
<circle cx="0" cy="0" r="3.772278355271038" fill="#cc00ff">
  <animateMotion begin="-17.285444891686215s" dur="17.3s" repeatCount="indefinite">
    <mpath xlink:href="#path25"></mpath>
  </animateMotion>
</circle><path id="path26" d="M 662.3306180953664 772.8411837289636
c 0 28.614224225725202 -7.001352736081698 8.218979298878516 -15.220332034960213 8.218979298878516
S 631.8899540254461 801.4554079546889 631.8899540254461 772.8411837289636
s 7.001352736081698 -8.218979298878516 15.220332034960213 -8.218979298878516
S 662.3306180953664 744.2269595032384 662.3306180953664 772.8411837289636
z" fill="none" stroke="none"></path>
<circle cx="0" cy="0" r="3.7078517372539057" fill="#aaff00">
  <animateMotion begin="-7.118586314776451s" dur="17.3s" repeatCount="indefinite">
    <mpath xlink:href="#path26"></mpath>
  </animateMotion>
</circle><path id="path27" d="M 628.7666899670841 597.671343982293
c 0 37.18731344279526 -9.09902350196054 10.681462371866722 -19.780485873827264 10.681462371866722
S 589.2057182194295 634.8586574250883 589.2057182194295 597.671343982293
s 9.09902350196054 -10.681462371866722 19.780485873827264 -10.681462371866722
S 628.7666899670841 560.4840305394978 628.7666899670841 597.671343982293
z" fill="none" stroke="none"></path>
<circle cx="0" cy="0" r="3.8574556381305087" fill="#00e5ff">
  <animateMotion begin="-12.08800486288619s" dur="17.3s" repeatCount="indefinite">
    <mpath xlink:href="#path27"></mpath>
  </animateMotion>
</circle><path id="path28" d="M 1028.0583556736487 481.981071873046
c 0 34.48664893106588 -8.438222610792714 9.905739586582753 -18.343962197375465 9.905739586582753
S 991.3704312788979 516.4677208041119 991.3704312788979 481.981071873046
s 8.438222610792714 -9.905739586582753 18.343962197375465 -9.905739586582753
S 1028.0583556736487 447.49442294198013 1028.0583556736487 481.981071873046
z" fill="none" stroke="none"></path>
<circle cx="0" cy="0" r="4.407028026463761" fill="#aaff00">
  <animateMotion begin="-2.9336365982358426s" dur="17.3s" repeatCount="indefinite">
    <mpath xlink:href="#path28"></mpath>
  </animateMotion>
</circle><path id="path29" d="M 901.9409102762094 684.5346044981089
c 0 37.246479700505695 -9.113500352251393 10.698456935251636 -19.811957287503027 10.698456935251636
S 862.3169957012034 721.7810841986146 862.3169957012034 684.5346044981089
s 9.113500352251393 -10.698456935251636 19.811957287503027 -10.698456935251636
S 901.9409102762094 647.2881247976032 901.9409102762094 684.5346044981089
z" fill="none" stroke="none"></path>
<circle cx="0" cy="0" r="3.5804875608675415" fill="#aaff00">
  <animateMotion begin="-8.963160435163381s" dur="17.3s" repeatCount="indefinite">
    <mpath xlink:href="#path29"></mpath>
  </animateMotion>
</circle><path id="path30" d="M 626.6096837996439 905.9249643979638
c 0 35.04435641792652 -8.574682953322446 10.065932162595915 -18.64061511591836 10.065932162595915
S 589.3284535678073 940.9693208158903 589.3284535678073 905.9249643979638
s 8.574682953322446 -10.065932162595915 18.64061511591836 -10.065932162595915
S 626.6096837996439 870.8806079800372 626.6096837996439 905.9249643979638
z" fill="none" stroke="none"></path>
<circle cx="0" cy="0" r="4.151855900105908" fill="#aaff00">
  <animateMotion begin="-12.008244222011086s" dur="17.3s" repeatCount="indefinite">
    <mpath xlink:href="#path30"></mpath>
  </animateMotion>
</circle><path id="path31" d="M 668.5609786633825 762.0389095739583
c 0 27.66763698250929 -6.769740963805464 7.947087218380329 -14.716828182185793 7.947087218380329
S 639.1273222990108 789.7065465564676 639.1273222990108 762.0389095739583
s 6.769740963805464 -7.947087218380329 14.716828182185793 -7.947087218380329
S 668.5609786633825 734.371272591449 668.5609786633825 762.0389095739583
z" fill="none" stroke="none"></path>
<circle cx="0" cy="0" r="3.8967700117433486" fill="#aaff00">
  <animateMotion begin="-3.7570296940597125s" dur="17.3s" repeatCount="indefinite">
    <mpath xlink:href="#path31"></mpath>
  </animateMotion>
</circle><path id="path32" d="M 432.89300013228893 681.4291043078036
c 0 25.648489233193178 -6.275694174079181 7.367119247832083 -13.642813421911264 7.367119247832083
S 405.60737328846636 707.0775935409969 405.60737328846636 681.4291043078036
s 6.275694174079181 -7.367119247832083 13.642813421911264 -7.367119247832083
S 432.89300013228893 655.7806150746104 432.89300013228893 681.4291043078036
z" fill="none" stroke="none"></path>
<circle cx="0" cy="0" r="5.404227574378477" fill="#00e5ff">
  <animateMotion begin="-5.607760766603208s" dur="17.3s" repeatCount="indefinite">
    <mpath xlink:href="#path32"></mpath>
  </animateMotion>
</circle><path id="path33" d="M 464.5385109870505 801.6222998960965
c 0 30.282741523393575 -7.409606968489917 8.69823426735773 -16.107841235847648 8.69823426735773
S 432.3228285153551 831.9050414194901 432.3228285153551 801.6222998960965
s 7.409606968489917 -8.69823426735773 16.107841235847648 -8.69823426735773
S 464.5385109870505 771.3395583727029 464.5385109870505 801.6222998960965
z" fill="none" stroke="none"></path>
<circle cx="0" cy="0" r="3.5883972759763063" fill="#cc00ff">
  <animateMotion begin="-6.082841453847044s" dur="17.3s" repeatCount="indefinite">
    <mpath xlink:href="#path33"></mpath>
  </animateMotion>
</circle><path id="path34" d="M 1247.7650814664064 523.4636747468426
c 0 21.40853827625035 -5.2382593654655105 6.149260994242122 -11.387520359707633 6.149260994242122
S 1224.990040746991 544.872213023093 1224.990040746991 523.4636747468426
s 5.2382593654655105 -6.149260994242122 11.387520359707633 -6.149260994242122
S 1247.7650814664064 502.05513647059223 1247.7650814664064 523.4636747468426
z" fill="none" stroke="none"></path>
<circle cx="0" cy="0" r="5.183028676079264" fill="#f7ff00">
  <animateMotion begin="-9.44195570867955s" dur="17.3s" repeatCount="indefinite">
    <mpath xlink:href="#path34"></mpath>
  </animateMotion>
</circle><path id="path35" d="M 680.1087148687611 634.1844130116312
c 0 31.06777155646543 -7.6016887850926045 8.923721617282624 -16.52541040237523 8.923721617282624
S 647.0578940640107 665.2521845680967 647.0578940640107 634.1844130116312
s 7.6016887850926045 -8.923721617282624 16.52541040237523 -8.923721617282624
S 680.1087148687611 603.1166414551658 680.1087148687611 634.1844130116312
z" fill="none" stroke="none"></path>
<circle cx="0" cy="0" r="4.8459395899889435" fill="#aaff00">
  <animateMotion begin="-8.49246272606697s" dur="17.3s" repeatCount="indefinite">
    <mpath xlink:href="#path35"></mpath>
  </animateMotion>
</circle><path id="path36" d="M 922.1699753788497 364.5357535591552
c 0 22.058353448295872 -5.397256694795797 6.335910033021155 -11.733166727816952 6.335910033021155
S 898.7036419232157 386.59410700745104 898.7036419232157 364.5357535591552
s 5.397256694795797 -6.335910033021155 11.733166727816952 -6.335910033021155
S 922.1699753788497 342.4774001108593 922.1699753788497 364.5357535591552
z" fill="none" stroke="none"></path>
<circle cx="0" cy="0" r="5.073270583085417" fill="#aaff00">
  <animateMotion begin="-12.561022714231013s" dur="17.3s" repeatCount="indefinite">
    <mpath xlink:href="#path36"></mpath>
  </animateMotion>
</circle><path id="path37" d="M 738.872212581022 303.8186007075708
c 0 34.291480137606605 -8.390468544307998 9.849680465057217 -18.240149009365215 9.849680465057217
S 702.3919145622915 338.1100808451774 702.3919145622915 303.8186007075708
s 8.390468544307998 -9.849680465057217 18.240149009365215 -9.849680465057217
S 738.872212581022 269.5271205699642 738.872212581022 303.8186007075708
z" fill="none" stroke="none"></path>
<circle cx="0" cy="0" r="3.5681874354240652" fill="#cc00ff">
  <animateMotion begin="-10.146276196699679s" dur="17.3s" repeatCount="indefinite">
    <mpath xlink:href="#path37"></mpath>
  </animateMotion>
</circle><path id="path38" d="M 753.9717547437683 193.58255570434739
c 0 20.994785863230916 -5.137022072918202 6.030417216034412 -11.167439288952615 6.030417216034412
S 731.636876165863 214.5773415675783 731.636876165863 193.58255570434739
s 5.137022072918202 -6.030417216034412 11.167439288952615 -6.030417216034412
S 753.9717547437683 172.58776984111648 753.9717547437683 193.58255570434739
z" fill="none" stroke="none"></path>
<circle cx="0" cy="0" r="5.384957366967263" fill="#00e5ff">
  <animateMotion begin="-8.293884193840432s" dur="17.3s" repeatCount="indefinite">
    <mpath xlink:href="#path38"></mpath>
  </animateMotion>
</circle><path id="path39" d="M 1196.8415119508095 654.8350915014693
c 0 24.148438279318157 -5.9086604300459316 6.93625354831479 -12.844913978360722 6.93625354831479
S 1171.1516839940882 678.9835297807874 1171.1516839940882 654.8350915014693
s 5.9086604300459316 -6.93625354831479 12.844913978360722 -6.93625354831479
S 1196.8415119508095 630.6866532221511 1196.8415119508095 654.8350915014693
z" fill="none" stroke="none"></path>
<circle cx="0" cy="0" r="3.7065825454962167" fill="#cc00ff">
  <animateMotion begin="-2.4819151949506044s" dur="17.3s" repeatCount="indefinite">
    <mpath xlink:href="#path39"></mpath>
  </animateMotion>
</circle><path id="path40" d="M 1198.6120080410108 693.8720244117386
c 0 33.57420282302782 -8.214964520528083 9.643654002359055 -17.858618522887138 9.643654002359055
S 1162.8947709952365 727.4462272347664 1162.8947709952365 693.8720244117386
s 8.214964520528083 -9.643654002359055 17.858618522887138 -9.643654002359055
S 1198.6120080410108 660.2978215887108 1198.6120080410108 693.8720244117386
z" fill="none" stroke="none"></path>
<circle cx="0" cy="0" r="3.8677109098997797" fill="#00e5ff">
  <animateMotion begin="-11.332439524348825s" dur="17.3s" repeatCount="indefinite">
    <mpath xlink:href="#path40"></mpath>
  </animateMotion>
</circle><path id="path41" d="M 675.797040260273 244.1354602654645
c 0 35.31631430177911 -8.641225839797015 10.144047724979107 -18.785273564776123 10.144047724979107
S 638.2264931307207 279.4517745672436 638.2264931307207 244.1354602654645
s 8.641225839797015 -10.144047724979107 18.785273564776123 -10.144047724979107
S 675.797040260273 208.8191459636854 675.797040260273 244.1354602654645
z" fill="none" stroke="none"></path>
<circle cx="0" cy="0" r="3.797076028798105" fill="#00e5ff">
  <animateMotion begin="-4.202732199535044s" dur="17.3s" repeatCount="indefinite">
    <mpath xlink:href="#path41"></mpath>
  </animateMotion>
</circle><path id="path42" d="M 570.3244461876709 602.8804338374458
c 0 22.50142898554867 -5.505668794336376 6.463176410742704 -11.968845205079079 6.463176410742704
S 546.3867557775127 625.3818628229944 546.3867557775127 602.8804338374458
s 5.505668794336376 -6.463176410742704 11.968845205079079 -6.463176410742704
S 570.3244461876709 580.3790048518972 570.3244461876709 602.8804338374458
z" fill="none" stroke="none"></path>
<circle cx="0" cy="0" r="5.11874429742363" fill="#f7ff00">
  <animateMotion begin="-13.816363394840867s" dur="17.3s" repeatCount="indefinite">
    <mpath xlink:href="#path42"></mpath>
  </animateMotion>
</circle><path id="path43" d="M 1034.1624455584765 180.0049662769875
c 0 22.912858929835085 -5.60633782325752 6.581353096867525 -12.187690920125045 6.581353096867525
S 1009.7870637182264 202.91782520682258 1009.7870637182264 180.0049662769875
s 5.60633782325752 -6.581353096867525 12.187690920125045 -6.581353096867525
S 1034.1624455584765 157.0921073471524 1034.1624455584765 180.0049662769875
z" fill="none" stroke="none"></path>
<circle cx="0" cy="0" r="5.064614250915342" fill="#f7ff00">
  <animateMotion begin="-14.568413363836813s" dur="17.3s" repeatCount="indefinite">
    <mpath xlink:href="#path43"></mpath>
  </animateMotion>
</circle><path id="path44" d="M 468.2245686325875 291.5922269040461
c 0 35.52661958755627 -8.692683516104193 10.204454562383184 -18.897138078487377 10.204454562383184
S 430.4302924756127 327.1188464916023 430.4302924756127 291.5922269040461
s 8.692683516104193 -10.204454562383184 18.897138078487377 -10.204454562383184
S 468.2245686325875 256.06560731648983 468.2245686325875 291.5922269040461
z" fill="none" stroke="none"></path>
<circle cx="0" cy="0" r="5.341789425825692" fill="#cc00ff">
  <animateMotion begin="-4.18960884950399s" dur="17.3s" repeatCount="indefinite">
    <mpath xlink:href="#path44"></mpath>
  </animateMotion>
</circle><path id="path45" d="M 407.80445773210727 186.43717595162337
c 0 24.028918332256193 -5.8794161876797055 6.901923350754439 -12.781339538434144 6.901923350754439
S 382.24177865523893 210.46609428387956 382.24177865523893 186.43717595162337
s 5.8794161876797055 -6.901923350754439 12.781339538434144 -6.901923350754439
S 407.80445773210727 162.4082576193672 407.80445773210727 186.43717595162337
z" fill="none" stroke="none"></path>
<circle cx="0" cy="0" r="3.7853170042014166" fill="#aaff00">
  <animateMotion begin="-13.238912552312538s" dur="17.3s" repeatCount="indefinite">
    <mpath xlink:href="#path45"></mpath>
  </animateMotion>
</circle><path id="path46" d="M 765.8211023825659 100.49974456661909
c 0 34.39438582620321 -8.415647595773125 9.87923848199454 -18.294886077767664 9.87923848199454
S 729.2313302270306 134.8941303928223 729.2313302270306 100.49974456661909
s 8.415647595773125 -9.87923848199454 18.294886077767664 -9.87923848199454
S 765.8211023825659 66.10535874041588 765.8211023825659 100.49974456661909
z" fill="none" stroke="none"></path>
<circle cx="0" cy="0" r="3.419177267378316" fill="#f7ff00">
  <animateMotion begin="-17.208790601777284s" dur="17.3s" repeatCount="indefinite">
    <mpath xlink:href="#path46"></mpath>
  </animateMotion>
</circle><path id="path47" d="M 982.3220984927538 335.42908220005864
c 0 30.202994638345288 -7.390094432786612 8.675328247184286 -16.065422679970897 8.675328247184286
S 950.191253132812 365.6320768384039 950.191253132812 335.42908220005864
s 7.390094432786612 -8.675328247184286 16.065422679970897 -8.675328247184286
S 982.3220984927538 305.22608756171337 982.3220984927538 335.42908220005864
z" fill="none" stroke="none"></path>
<circle cx="0" cy="0" r="5.319937501905984" fill="#f7ff00">
  <animateMotion begin="-2.3157093097149555s" dur="17.3s" repeatCount="indefinite">
    <mpath xlink:href="#path47"></mpath>
  </animateMotion>
</circle><path id="path48" d="M 1160.846766988225 613.6984483978415
c 0 27.717648759937834 -6.781977888069895 7.9614523033864 -14.743430191456294 7.9614523033864
S 1131.3599066053123 641.4160971577793 1131.3599066053123 613.6984483978415
s 6.781977888069895 -7.9614523033864 14.743430191456294 -7.9614523033864
S 1160.846766988225 585.9807996379037 1160.846766988225 613.6984483978415
z" fill="none" stroke="none"></path>
<circle cx="0" cy="0" r="3.7367405259937323" fill="#f7ff00">
  <animateMotion begin="-3.950351103467857s" dur="17.3s" repeatCount="indefinite">
    <mpath xlink:href="#path48"></mpath>
  </animateMotion>
</circle><path id="path49" d="M 1265.9723488741897 610.1853390510128
c 0 22.008148333172112 -5.384972464499559 6.321489414847309 -11.706461879346868 6.321489414847309
S 1242.5594251154962 632.1934873841849 1242.5594251154962 610.1853390510128
s 5.384972464499559 -6.321489414847309 11.706461879346868 -6.321489414847309
S 1265.9723488741897 588.1771907178406 1265.9723488741897 610.1853390510128
z" fill="none" stroke="none"></path>
<circle cx="0" cy="0" r="3.814735735634201" fill="#f7ff00">
  <animateMotion begin="-3.5274273200141977s" dur="17.3s" repeatCount="indefinite">
    <mpath xlink:href="#path49"></mpath>
  </animateMotion>
</circle><path id="path50" d="M 1178.4325872431475 583.3729309914304
c 0 30.67244233359544 -7.504959294390373 8.810169606458265 -16.315128900848638 8.810169606458265
S 1145.8023294414504 614.0453733250258 1145.8023294414504 583.3729309914304
s 7.504959294390373 -8.810169606458265 16.315128900848638 -8.810169606458265
S 1178.4325872431475 552.700488657835 1178.4325872431475 583.3729309914304
z" fill="none" stroke="none"></path>
<circle cx="0" cy="0" r="3.8705751343290884" fill="#cc00ff">
  <animateMotion begin="-3.361536264003956s" dur="17.3s" repeatCount="indefinite">
    <mpath xlink:href="#path50"></mpath>
  </animateMotion>
</circle><path id="path51" d="M 522.7016669400306 106.9339625905601
c 0 19.408820849574454 -4.748966803619281 5.574874073813938 -10.32384087743322 5.574874073813938
S 502.05398518516415 126.34278344013455 502.05398518516415 106.9339625905601
s 4.748966803619281 -5.574874073813938 10.32384087743322 -5.574874073813938
S 522.7016669400306 87.52514174098565 522.7016669400306 106.9339625905601
z" fill="none" stroke="none"></path>
<circle cx="0" cy="0" r="5.104587642397531" fill="#00e5ff">
  <animateMotion begin="-1.4377271536000662s" dur="17.3s" repeatCount="indefinite">
    <mpath xlink:href="#path51"></mpath>
  </animateMotion>
</circle><path id="path52" d="M 1236.0661930321523 288.3224396343558
c 0 27.278474286718104 -6.6745203041969825 7.835306444057329 -14.50982674825431 7.835306444057329
S 1207.046539535644 315.6009139210739 1207.046539535644 288.3224396343558
s 6.6745203041969825 -7.835306444057329 14.50982674825431 -7.835306444057329
S 1236.0661930321523 261.0439653476377 1236.0661930321523 288.3224396343558
z" fill="none" stroke="none"></path>
<circle cx="0" cy="0" r="4.2020137512779705" fill="#00e5ff">
  <animateMotion begin="-13.866255368557303s" dur="17.3s" repeatCount="indefinite">
    <mpath xlink:href="#path52"></mpath>
  </animateMotion>
</circle><path id="path53" d="M 1007.4818083693837 871.7072630247086
c 0 26.04522246860858 -6.372767199765928 7.481074538855656 -13.853841738621584 7.481074538855656
S 979.7741248921405 897.7524854933172 979.7741248921405 871.7072630247086
s 6.372767199765928 -7.481074538855656 13.853841738621584 -7.481074538855656
S 1007.4818083693837 845.6620405561 1007.4818083693837 871.7072630247086
z" fill="none" stroke="none"></path>
<circle cx="0" cy="0" r="3.483277670424262" fill="#cc00ff">
  <animateMotion begin="-1.8385099504535618s" dur="17.3s" repeatCount="indefinite">
    <mpath xlink:href="#path53"></mpath>
  </animateMotion>
</circle><path id="path54" d="M 384.58154874477816 827.0324260918619
c 0 32.3106882363159 -7.905806696119846 9.280729599792865 -17.18653629591271 9.280729599792865
S 350.2084761529527 859.3431143281778 350.2084761529527 827.0324260918619
s 7.905806696119846 -9.280729599792865 17.18653629591271 -9.280729599792865
S 384.58154874477816 794.721737855546 384.58154874477816 827.0324260918619
z" fill="none" stroke="none"></path>
<circle cx="0" cy="0" r="3.6069368274345956" fill="#00e5ff">
  <animateMotion begin="-6.1283814467976825s" dur="17.3s" repeatCount="indefinite">
    <mpath xlink:href="#path54"></mpath>
  </animateMotion>
</circle><path id="path55" d="M 286.80592944473705 484.50753334045066
c 0 36.03118333196824 -8.816140602502868 10.349382446416412 -19.16552304891928 10.349382446416412
S 248.47488334689848 520.5387166724189 248.47488334689848 484.50753334045066
s 8.816140602502868 -10.349382446416412 19.16552304891928 -10.349382446416412
S 286.80592944473705 448.4763500084824 286.80592944473705 484.50753334045066
z" fill="none" stroke="none"></path>
<circle cx="0" cy="0" r="3.6524163721442098" fill="#f7ff00">
  <animateMotion begin="-14.65900360468388s" dur="17.3s" repeatCount="indefinite">
    <mpath xlink:href="#path55"></mpath>
  </animateMotion>
</circle><path id="path56" d="M 1038.0891870193825 160.02112002545894
c 0 26.558189363827804 -6.498280376255739 7.628416093865433 -14.126696470121171 7.628416093865433
S 1009.8357940791401 186.57930938928675 1009.8357940791401 160.02112002545894
s 6.498280376255739 -7.628416093865433 14.126696470121171 -7.628416093865433
S 1038.0891870193825 133.46293066163113 1038.0891870193825 160.02112002545894
z" fill="none" stroke="none"></path>
<circle cx="0" cy="0" r="4.7453720213615105" fill="#00e5ff">
  <animateMotion begin="-15.479529816930278s" dur="17.3s" repeatCount="indefinite">
    <mpath xlink:href="#path56"></mpath>
  </animateMotion>
</circle><path id="path57" d="M 954.829692270111 435.7293220104471
c 0 22.313985933336635 -5.459805068795133 6.4093363851073315 -11.869141453902465 6.4093363851073315
S 931.0914093623061 458.04330794378376 931.0914093623061 435.7293220104471
s 5.459805068795133 -6.4093363851073315 11.869141453902465 -6.4093363851073315
S 954.829692270111 413.41533607711045 954.829692270111 435.7293220104471
z" fill="none" stroke="none"></path>
<circle cx="0" cy="0" r="5.206513492512622" fill="#00e5ff">
  <animateMotion begin="-2.3143278167267916s" dur="17.3s" repeatCount="indefinite">
    <mpath xlink:href="#path57"></mpath>
  </animateMotion>
</circle><path id="path58" d="M 667.7634195679393 945.252743859003
c 0 21.693391210434594 -5.30795742382974 6.231080454061001 -11.539037877890742 6.231080454061001
S 644.6853438121577 966.9461350694376 644.6853438121577 945.252743859003
s 5.30795742382974 -6.231080454061001 11.539037877890742 -6.231080454061001
S 667.7634195679393 923.5593526485684 667.7634195679393 945.252743859003
z" fill="none" stroke="none"></path>
<circle cx="0" cy="0" r="4.343131441648508" fill="#aaff00">
  <animateMotion begin="-12.103921554567544s" dur="17.3s" repeatCount="indefinite">
    <mpath xlink:href="#path58"></mpath>
  </animateMotion>
</circle><path id="path59" d="M 1187.465016709383 217.8156937778444
c 0 36.34056099323849 -8.891839391962609 10.438246242738716 -19.330085634701323 10.438246242738716
S 1148.8048454399802 254.15625477108287 1148.8048454399802 217.8156937778444
s 8.891839391962609 -10.438246242738716 19.330085634701323 -10.438246242738716
S 1187.465016709383 181.4751327846059 1187.465016709383 217.8156937778444
z" fill="none" stroke="none"></path>
<circle cx="0" cy="0" r="2.8319089327376568" fill="#cc00ff">
  <animateMotion begin="-4.697514156097282s" dur="17.3s" repeatCount="indefinite">
    <mpath xlink:href="#path59"></mpath>
  </animateMotion>
</circle><path id="path60" d="M 207.39035775499013 412.5685475057185
c 0 34.992561553374834 -8.562009741783204 10.051054914267239 -18.61306465605044 10.051054914267239
S 170.16422844288928 447.5611090590934 170.16422844288928 412.5685475057185
s 8.562009741783204 -10.051054914267239 18.61306465605044 -10.051054914267239
S 207.39035775499013 377.5759859523437 207.39035775499013 412.5685475057185
z" fill="none" stroke="none"></path>
<circle cx="0" cy="0" r="4.805308782526576" fill="#cc00ff">
  <animateMotion begin="-1.107873211052255s" dur="17.3s" repeatCount="indefinite">
    <mpath xlink:href="#path60"></mpath>
  </animateMotion>
</circle><path id="path61" d="M 361.02340278824107 224.8881296280589
c 0 31.185359725180742 -7.630460358288904 8.95749694233915 -16.587957300628055 8.95749694233915
S 327.847488186985 256.0734893532396 327.847488186985 224.8881296280589
s 7.630460358288904 -8.95749694233915 16.587957300628055 -8.95749694233915
S 361.02340278824107 193.70276990287815 361.02340278824107 224.8881296280589
z" fill="none" stroke="none"></path>
<circle cx="0" cy="0" r="3.817504634336879" fill="#f7ff00">
  <animateMotion begin="-4.402127149895497s" dur="17.3s" repeatCount="indefinite">
    <mpath xlink:href="#path61"></mpath>
  </animateMotion>
</circle><path id="path62" d="M 1137.0679125425465 232.52361101880132
c 0 19.210433219672183 -4.700425149494257 5.517890392884563 -10.21831554237882 5.517890392884563
S 1116.6312814577889 251.7340442384735 1116.6312814577889 232.52361101880132
s 4.700425149494257 -5.517890392884563 10.21831554237882 -5.517890392884563
S 1137.0679125425465 213.31317779912914 1137.0679125425465 232.52361101880132
z" fill="none" stroke="none"></path>
<circle cx="0" cy="0" r="3.473894910309044" fill="#f7ff00">
  <animateMotion begin="-9.920207002220836s" dur="17.3s" repeatCount="indefinite">
    <mpath xlink:href="#path62"></mpath>
  </animateMotion>
</circle><path id="path63" d="M 469.48402409151726 704.275524129998
c 0 25.539666415154517 -6.249067314346317 7.335861629884808 -13.584928944231125 7.335861629884808
S 442.314166203055 729.8151905451525 442.314166203055 704.275524129998
s 6.249067314346317 -7.335861629884808 13.584928944231125 -7.335861629884808
S 469.48402409151726 678.7358577148434 469.48402409151726 704.275524129998
z" fill="none" stroke="none"></path>
<circle cx="0" cy="0" r="3.6380569818981967" fill="#cc00ff">
  <animateMotion begin="-9.899167217497629s" dur="17.3s" repeatCount="indefinite">
    <mpath xlink:href="#path63"></mpath>
  </animateMotion>
</circle><path id="path64" d="M 1151.2091867210904 564.029222810308
c 0 25.90520587072723 -6.338507819433258 7.440857005421652 -13.779364824854909 7.440857005421652
S 1123.6504570713807 589.9344286810353 1123.6504570713807 564.029222810308
s 6.338507819433258 -7.440857005421652 13.779364824854909 -7.440857005421652
S 1151.2091867210904 538.1240169395808 1151.2091867210904 564.029222810308
z" fill="none" stroke="none"></path>
<circle cx="0" cy="0" r="5.484978767536399" fill="#00e5ff">
  <animateMotion begin="-4.062661462555452s" dur="17.3s" repeatCount="indefinite">
    <mpath xlink:href="#path64"></mpath>
  </animateMotion>
</circle><path id="path65" d="M 63.80107510368356 656.5004069970798
c 0 27.746064408490877 -6.788930653141384 7.969614244992061 -14.758544898133445 7.969614244992061
S 34.28398530741667 684.2464714055707 34.28398530741667 656.5004069970798
s 6.788930653141384 -7.969614244992061 14.758544898133445 -7.969614244992061
S 63.80107510368356 628.754342588589 63.80107510368356 656.5004069970798
z" fill="none" stroke="none"></path>
<circle cx="0" cy="0" r="3.7646241256670283" fill="#00e5ff">
  <animateMotion begin="-7.534455247999703s" dur="17.3s" repeatCount="indefinite">
    <mpath xlink:href="#path65"></mpath>
  </animateMotion>
</circle><path id="path66" d="M 558.026963603833 593.6439594870791
c 0 35.576226323948475 -8.704821334583137 10.218703305814989 -18.923524640398128 10.218703305814989
S 520.1799143230368 629.2201858110276 520.1799143230368 593.6439594870791
s 8.704821334583137 -10.218703305814989 18.923524640398128 -10.218703305814989
S 558.026963603833 558.0677331631306 558.026963603833 593.6439594870791
z" fill="none" stroke="none"></path>
<circle cx="0" cy="0" r="3.2815583832193105" fill="#f7ff00">
  <animateMotion begin="-0.14872629156168204s" dur="17.3s" repeatCount="indefinite">
    <mpath xlink:href="#path66"></mpath>
  </animateMotion>
</circle><path id="path67" d="M 521.0388833751456 745.006642468832
c 0 32.101995900662054 -7.854743677821566 9.220786056573145 -17.07552973439471 9.220786056573145
S 486.8878239063561 777.108638369494 486.8878239063561 745.006642468832
s 7.854743677821566 -9.220786056573145 17.07552973439471 -9.220786056573145
S 521.0388833751456 712.9046465681699 521.0388833751456 745.006642468832
z" fill="none" stroke="none"></path>
<circle cx="0" cy="0" r="4.669300131511248" fill="#aaff00">
  <animateMotion begin="-2.3026816014242857s" dur="17.3s" repeatCount="indefinite">
    <mpath xlink:href="#path67"></mpath>
  </animateMotion>
</circle><path id="path68" d="M 680.2766360405092 362.8366147657924
c 0 30.71277631210328 -7.51482824657846 8.821754898157325 -16.336583144735787 8.821754898157325
S 647.6034697510377 393.5493910778957 647.6034697510377 362.8366147657924
s 7.51482824657846 -8.821754898157325 16.336583144735787 -8.821754898157325
S 680.2766360405092 332.1238384536891 680.2766360405092 362.8366147657924
z" fill="none" stroke="none"></path>
<circle cx="0" cy="0" r="2.8241294447006116" fill="#f7ff00">
  <animateMotion begin="-8.153191805718906s" dur="17.3s" repeatCount="indefinite">
    <mpath xlink:href="#path68"></mpath>
  </animateMotion>
</circle><path id="path69" d="M 936.2309587884779 841.063462403688
c 0 35.18666816085419 -8.609503911698365 10.106808939819821 -18.716312851518186 10.106808939819821
S 898.7983330854415 876.2501305645422 898.7983330854415 841.063462403688
s 8.609503911698365 -10.106808939819821 18.716312851518186 -10.106808939819821
S 936.2309587884779 805.8767942428339 936.2309587884779 841.063462403688
z" fill="none" stroke="none"></path>
<circle cx="0" cy="0" r="2.8831762596965103" fill="#00e5ff">
  <animateMotion begin="-10.7943782477893s" dur="17.3s" repeatCount="indefinite">
    <mpath xlink:href="#path69"></mpath>
  </animateMotion>
</circle><path id="path70" d="M 651.3537420200714 860.8290518536634
c 0 23.59857731718217 -5.774119981863722 6.778314761318282 -12.552434743182005 6.778314761318282
S 626.2488725337075 884.4276291708455 626.2488725337075 860.8290518536634
s 5.774119981863722 -6.778314761318282 12.552434743182005 -6.778314761318282
S 651.3537420200714 837.2304745364812 651.3537420200714 860.8290518536634
z" fill="none" stroke="none"></path>
<circle cx="0" cy="0" r="3.112534595837185" fill="#aaff00">
  <animateMotion begin="-2.3137892111541736s" dur="17.3s" repeatCount="indefinite">
    <mpath xlink:href="#path70"></mpath>
  </animateMotion>
</circle><path id="path71" d="M 1176.255769704195 716.7815364053519
c 0 26.735176699786418 -6.541585788245612 7.679252881853546 -14.220838670099159 7.679252881853546
S 1147.814092363997 743.5167131051383 1147.814092363997 716.7815364053519
s 6.541585788245612 -7.679252881853546 14.220838670099159 -7.679252881853546
S 1176.255769704195 690.0463597055655 1176.255769704195 716.7815364053519
z" fill="none" stroke="none"></path>
<circle cx="0" cy="0" r="3.9964960398858804" fill="#cc00ff">
  <animateMotion begin="-14.563986588776627s" dur="17.3s" repeatCount="indefinite">
    <mpath xlink:href="#path71"></mpath>
  </animateMotion>
</circle><path id="path72" d="M 1226.2409036972454 196.1594388775222
c 0 36.44462161192765 -8.917301032705701 10.46813599491539 -19.38543702762109 10.46813599491539
S 1187.4700296420033 232.60406048944986 1187.4700296420033 196.1594388775222
s 8.917301032705701 -10.46813599491539 19.38543702762109 -10.46813599491539
S 1226.2409036972454 159.71481726559455 1226.2409036972454 196.1594388775222
z" fill="none" stroke="none"></path>
<circle cx="0" cy="0" r="4.304207921316666" fill="#aaff00">
  <animateMotion begin="-13.216964015714531s" dur="17.3s" repeatCount="indefinite">
    <mpath xlink:href="#path72"></mpath>
  </animateMotion>
</circle><path id="path73" d="M 206.68490661784705 942.3670087189936
c 0 34.055712544255506 -8.33278072891358 9.781959986115943 -18.114740715029523 9.781959986115943
S 170.45542518778802 976.4227212632491 170.45542518778802 942.3670087189936
s 8.33278072891358 -9.781959986115943 18.114740715029523 -9.781959986115943
S 206.68490661784705 908.3112961747381 206.68490661784705 942.3670087189936
z" fill="none" stroke="none"></path>
<circle cx="0" cy="0" r="3.3830274621495473" fill="#00e5ff">
  <animateMotion begin="-7.6032044546188615s" dur="17.3s" repeatCount="indefinite">
    <mpath xlink:href="#path73"></mpath>
  </animateMotion>
</circle><path id="path74" d="M 429.86215924998197 378.8945797170312
c 0 21.6165081980058 -5.289145622916313 6.208997035597411 -11.498142658513723 6.208997035597411
S 406.86587393295457 400.511087915037 406.86587393295457 378.8945797170312
s 5.289145622916313 -6.208997035597411 11.498142658513723 -6.208997035597411
S 429.86215924998197 357.2780715190254 429.86215924998197 378.8945797170312
z" fill="none" stroke="none"></path>
<circle cx="0" cy="0" r="4.376530057296883" fill="#cc00ff">
  <animateMotion begin="-11.172112086348235s" dur="17.3s" repeatCount="indefinite">
    <mpath xlink:href="#path74"></mpath>
  </animateMotion>
</circle><path id="path75" d="M 977.9010336301282 50.03361386544286
c 0 26.582112476486188 -6.504133903821088 7.635287626224756 -14.139421530045844 7.635287626224756
S 949.6221905700364 76.61572634192905 949.6221905700364 50.03361386544286
s 6.504133903821088 -7.635287626224756 14.139421530045844 -7.635287626224756
S 977.9010336301282 23.45150138895667 977.9010336301282 50.03361386544286
z" fill="none" stroke="none"></path>
<circle cx="0" cy="0" r="4.409979108419505" fill="#cc00ff">
  <animateMotion begin="-9.68456980509787s" dur="17.3s" repeatCount="indefinite">
    <mpath xlink:href="#path75"></mpath>
  </animateMotion>
</circle><path id="path76" d="M 1172.809846155557 704.7623614226594
c 0 28.099228515399727 -6.875343147385038 8.071054999104177 -14.946398146489216 8.071054999104177
S 1142.9170498625786 732.8615899380592 1142.9170498625786 704.7623614226594
s 6.875343147385038 -8.071054999104177 14.946398146489216 -8.071054999104177
S 1172.809846155557 676.6631329072596 1172.809846155557 704.7623614226594
z" fill="none" stroke="none"></path>
<circle cx="0" cy="0" r="2.8538698675163165" fill="#cc00ff">
  <animateMotion begin="-7.65587686353198s" dur="17.3s" repeatCount="indefinite">
    <mpath xlink:href="#path76"></mpath>
  </animateMotion>
</circle><path id="path77" d="M 836.3183889184812 86.4234901232872
c 0 34.925307603871225 -8.545553988181256 10.03173729047365 -18.577291278654904 10.03173729047365
S 799.1638063611714 121.34879772715843 799.1638063611714 86.4234901232872
s 8.545553988181256 -10.03173729047365 18.577291278654904 -10.03173729047365
S 836.3183889184812 51.49818251941597 836.3183889184812 86.4234901232872
z" fill="none" stroke="none"></path>
<circle cx="0" cy="0" r="3.9093867144061507" fill="#cc00ff">
  <animateMotion begin="-0.034848190530079724s" dur="17.3s" repeatCount="indefinite">
    <mpath xlink:href="#path77"></mpath>
  </animateMotion>
</circle><path id="path78" d="M 1061.943561045496 454.40485285563983
c 0 33.92243995497442 -8.300171478344804 9.743679561535208 -18.04385103988001 9.743679561535208
S 1025.8558589657357 488.32729281061427 1025.8558589657357 454.40485285563983
s 8.300171478344804 -9.743679561535208 18.04385103988001 -9.743679561535208
S 1061.943561045496 420.4824129006654 1061.943561045496 454.40485285563983
z" fill="none" stroke="none"></path>
<circle cx="0" cy="0" r="4.150965399899492" fill="#f7ff00">
  <animateMotion begin="-5.9770032780590725s" dur="17.3s" repeatCount="indefinite">
    <mpath xlink:href="#path78"></mpath>
  </animateMotion>
</circle><path id="path79" d="M 170.60943112236743 338.66693621022046
c 0 23.474151300474183 -5.74367531820113 6.742575373540458 -12.486250691741587 6.742575373540458
S 145.63692973888425 362.14108751069466 145.63692973888425 338.66693621022046
s 5.74367531820113 -6.742575373540458 12.486250691741587 -6.742575373540458
S 170.60943112236743 315.19278490974625 170.60943112236743 338.66693621022046
z" fill="none" stroke="none"></path>
<circle cx="0" cy="0" r="3.7731380680197506" fill="#aaff00">
  <animateMotion begin="-0.8416707934696912s" dur="17.3s" repeatCount="indefinite">
    <mpath xlink:href="#path79"></mpath>
  </animateMotion>
</circle><path id="path80" d="M 127.63084327478279 784.9869190729065
c 0 27.209492947259335 -6.657641891350687 7.815492655063852 -14.473134546414538 7.815492655063852
S 98.6845741819537 812.1964120201659 98.6845741819537 784.9869190729065
s 6.657641891350687 -7.815492655063852 14.473134546414538 -7.815492655063852
S 127.63084327478279 757.7774261256471 127.63084327478279 784.9869190729065
z" fill="none" stroke="none"></path>
<circle cx="0" cy="0" r="2.8253527379102863" fill="#00e5ff">
  <animateMotion begin="-1.0391824414877504s" dur="17.3s" repeatCount="indefinite">
    <mpath xlink:href="#path80"></mpath>
  </animateMotion>
</circle><path id="path81" d="M 1043.5280400340193 683.5168269626178
c 0 30.48423731847801 -7.458909131116959 8.7561107191373 -16.215019850254258 8.7561107191373
S 1011.0980003335108 714.0010642810958 1011.0980003335108 683.5168269626178
s 7.458909131116959 -8.7561107191373 16.215019850254258 -8.7561107191373
S 1043.5280400340193 653.0325896441398 1043.5280400340193 683.5168269626178
z" fill="none" stroke="none"></path>
<circle cx="0" cy="0" r="3.1440555095019422" fill="#cc00ff">
  <animateMotion begin="-10.472377776527322s" dur="17.3s" repeatCount="indefinite">
    <mpath xlink:href="#path81"></mpath>
  </animateMotion>
</circle><path id="path82" d="M 717.1469822955228 588.6561710428944
c 0 20.856679067842776 -5.103229984684934 5.99074824289101 -11.093978227575946 5.99074824289101
S 694.9590258403709 609.5128501107372 694.9590258403709 588.6561710428944
s 5.103229984684934 -5.99074824289101 11.093978227575946 -5.99074824289101
S 717.1469822955228 567.7994919750515 717.1469822955228 588.6561710428944
z" fill="none" stroke="none"></path>
<circle cx="0" cy="0" r="4.911597346823395" fill="#cc00ff">
  <animateMotion begin="-13.526134256186966s" dur="17.3s" repeatCount="indefinite">
    <mpath xlink:href="#path82"></mpath>
  </animateMotion>
</circle><path id="path83" d="M 617.4078349355173 210.68476227823004
c 0 34.40717527036917 -8.418776927856285 9.882912045744337 -18.301688973600623 9.882912045744337
S 580.8044569883159 245.09193754859922 580.8044569883159 210.68476227823004
s 8.418776927856285 -9.882912045744337 18.301688973600623 -9.882912045744337
S 617.4078349355173 176.27758700786086 617.4078349355173 210.68476227823004
z" fill="none" stroke="none"></path>
<circle cx="0" cy="0" r="3.0095108456247965" fill="#cc00ff">
  <animateMotion begin="-4.147847641274394s" dur="17.3s" repeatCount="indefinite">
    <mpath xlink:href="#path83"></mpath>
  </animateMotion>
</circle><path id="path84" d="M 1285.375107998225 247.65556945903538
c 0 35.59321023679659 -8.708976972833206 10.223581663760722 -18.932558636593928 10.223581663760722
S 1247.5099907250371 283.24877969583196 1247.5099907250371 247.65556945903538
s 8.708976972833206 -10.223581663760722 18.932558636593928 -10.223581663760722
S 1285.375107998225 212.0623592222388 1285.375107998225 247.65556945903538
z" fill="none" stroke="none"></path>
<circle cx="0" cy="0" r="4.206438687105572" fill="#cc00ff">
  <animateMotion begin="-2.3834128564307964s" dur="17.3s" repeatCount="indefinite">
    <mpath xlink:href="#path84"></mpath>
  </animateMotion>
</circle><path id="path85" d="M 317.67220818601317 731.0109523360245
c 0 28.346442530316057 -6.935831682949673 8.1420632799844 -15.077894962934073 8.1420632799844
S 287.51641826014503 759.3573948663405 287.51641826014503 731.0109523360245
s 6.935831682949673 -8.1420632799844 15.077894962934073 -8.1420632799844
S 317.67220818601317 702.6645098057085 317.67220818601317 731.0109523360245
z" fill="none" stroke="none"></path>
<circle cx="0" cy="0" r="4.064944677254337" fill="#aaff00">
  <animateMotion begin="-10.51881395788072s" dur="17.3s" repeatCount="indefinite">
    <mpath xlink:href="#path85"></mpath>
  </animateMotion>
</circle><path id="path86" d="M 714.8463910731091 725.8750271683626
c 0 33.765061457983364 -8.261663973761886 9.698475099633521 -17.960139073395407 9.698475099633521
S 678.9261129263182 759.640088626346 678.9261129263182 725.8750271683626
s 8.261663973761886 -9.698475099633521 17.960139073395407 -9.698475099633521
S 714.8463910731091 692.1099657103792 714.8463910731091 725.8750271683626
z" fill="none" stroke="none"></path>
<circle cx="0" cy="0" r="3.8716698435231107" fill="#00e5ff">
  <animateMotion begin="-3.671452718403156s" dur="17.3s" repeatCount="indefinite">
    <mpath xlink:href="#path86"></mpath>
  </animateMotion>
</circle><path id="path87" d="M 33.66776134346161 851.181948931455
c 0 27.510899803115734 -6.731390377358104 7.902066964724732 -14.633457342082837 7.902066964724732
S 4.400846659295938 878.6928487345708 4.400846659295938 851.181948931455
s 6.731390377358104 -7.902066964724732 14.633457342082837 -7.902066964724732
S 33.66776134346161 823.6710491283393 33.66776134346161 851.181948931455
z" fill="none" stroke="none"></path>
<circle cx="0" cy="0" r="5.396629124630678" fill="#00e5ff">
  <animateMotion begin="-11.112751781233992s" dur="17.3s" repeatCount="indefinite">
    <mpath xlink:href="#path87"></mpath>
  </animateMotion>
</circle><path id="path88" d="M 536.0481055293149 78.42816946902246
c 0 33.745992769028156 -8.256998230719654 9.692997923018725 -17.94999615373838 9.692997923018725
S 500.14811322183806 112.17416223805063 500.14811322183806 78.42816946902246
s 8.256998230719654 -9.692997923018725 17.94999615373838 -9.692997923018725
S 536.0481055293149 44.68217669999431 536.0481055293149 78.42816946902246
z" fill="none" stroke="none"></path>
<circle cx="0" cy="0" r="5.345114536449383" fill="#f7ff00">
  <animateMotion begin="-3.983573078170893s" dur="17.3s" repeatCount="indefinite">
    <mpath xlink:href="#path88"></mpath>
  </animateMotion>
</circle><path id="path89" d="M 1209.8178954326522 760.1963002029482
c 0 37.575058835257856 -9.193897374584369 10.79283604842513 -19.986733423009497 10.79283604842513
S 1169.844428586633 797.7713590382061 1169.844428586633 760.1963002029482
s 9.193897374584369 -10.79283604842513 19.986733423009497 -10.79283604842513
S 1209.8178954326522 722.6212413676903 1209.8178954326522 760.1963002029482
z" fill="none" stroke="none"></path>
<circle cx="0" cy="0" r="4.00668658751705" fill="#aaff00">
  <animateMotion begin="-14.283014448562199s" dur="17.3s" repeatCount="indefinite">
    <mpath xlink:href="#path89"></mpath>
  </animateMotion>
</circle><path id="path90" d="M 1206.6811867699878 427.2418785652161
c 0 31.291558295613537 -7.656445114884162 8.988000787037931 -16.644445901922094 8.988000787037931
S 1173.3922949661435 458.5334368608296 1173.3922949661435 427.2418785652161
s 7.656445114884162 -8.988000787037931 16.644445901922094 -8.988000787037931
S 1206.6811867699878 395.95032026960257 1206.6811867699878 427.2418785652161
z" fill="none" stroke="none"></path>
<circle cx="0" cy="0" r="4.419844155687448" fill="#aaff00">
  <animateMotion begin="-12.174333325571348s" dur="17.3s" repeatCount="indefinite">
    <mpath xlink:href="#path90"></mpath>
  </animateMotion>
</circle><path id="path91" d="M 1199.4090684830148 910.2207371694694
c 0 35.600510564589996 -8.710763223250742 10.225678566424786 -18.936441789675527 10.225678566424786
S 1161.536184903664 945.8212477340594 1161.536184903664 910.2207371694694
s 8.710763223250742 -10.225678566424786 18.936441789675527 -10.225678566424786
S 1199.4090684830148 874.6202266048795 1199.4090684830148 910.2207371694694
z" fill="none" stroke="none"></path>
<circle cx="0" cy="0" r="5.367213755330172" fill="#00e5ff">
  <animateMotion begin="-3.6453276207694487s" dur="17.3s" repeatCount="indefinite">
    <mpath xlink:href="#path91"></mpath>
  </animateMotion>
</circle><path id="path92" d="M 543.1464728579188 971.5524007619366
c 0 37.301038914545195 -9.126849947175952 10.714128198858727 -19.84097814603468 10.714128198858727
S 503.4645165658494 1008.8534396764818 503.4645165658494 971.5524007619366
s 9.126849947175952 -10.714128198858727 19.84097814603468 -10.714128198858727
S 543.1464728579188 934.2513618473914 543.1464728579188 971.5524007619366
z" fill="none" stroke="none"></path>
<circle cx="0" cy="0" r="3.773919779601961" fill="#f7ff00">
  <animateMotion begin="-15.425666985879017s" dur="17.3s" repeatCount="indefinite">
    <mpath xlink:href="#path92"></mpath>
  </animateMotion>
</circle><path id="path93" d="M 617.2838853151201 495.55674828175165
c 0 33.57766874602426 -8.215812565516574 9.644649533432501 -17.860462098949075 9.644649533432501
S 581.562961117222 529.134417027776 581.562961117222 495.55674828175165
s 8.215812565516574 -9.644649533432501 17.860462098949075 -9.644649533432501
S 617.2838853151201 461.9790795357274 617.2838853151201 495.55674828175165
z" fill="none" stroke="none"></path>
<circle cx="0" cy="0" r="4.943123692901196" fill="#aaff00">
  <animateMotion begin="-4.416228188791944s" dur="17.3s" repeatCount="indefinite">
    <mpath xlink:href="#path93"></mpath>
  </animateMotion>
</circle><path id="path94" d="M 830.9499800084143 263.85780668508346
c 0 28.837371379205337 -7.055952571507688 8.283074757856852 -15.33902732936454 8.283074757856852
S 800.2719253496853 292.6951780642888 800.2719253496853 263.85780668508346
s 7.055952571507688 -8.283074757856852 15.33902732936454 -8.283074757856852
S 830.9499800084143 235.02043530587812 830.9499800084143 263.85780668508346
z" fill="none" stroke="none"></path>
<circle cx="0" cy="0" r="5.203096971471885" fill="#aaff00">
  <animateMotion begin="-1.8431182301127007s" dur="17.3s" repeatCount="indefinite">
    <mpath xlink:href="#path94"></mpath>
  </animateMotion>
</circle><path id="path95" d="M 1266.641326032004 607.0522704904969
c 0 22.927469170788452 -5.609912669448238 6.5855496554392365 -12.195462324887474 6.5855496554392365
S 1242.2504013822288 629.9797396612853 1242.2504013822288 607.0522704904969
s 5.609912669448238 -6.5855496554392365 12.195462324887474 -6.5855496554392365
S 1266.641326032004 584.1248013197085 1266.641326032004 607.0522704904969
z" fill="none" stroke="none"></path>
<circle cx="0" cy="0" r="5.211927648680275" fill="#aaff00">
  <animateMotion begin="-5.231852396879165s" dur="17.3s" repeatCount="indefinite">
    <mpath xlink:href="#path95"></mpath>
  </animateMotion>
</circle><path id="path96" d="M 966.3659566135451 84.11858589915771
c 0 19.924350668645733 -4.875107078498424 5.722951787802498 -10.59805886630092 5.722951787802498
S 945.1698388809433 104.04293656780344 945.1698388809433 84.11858589915771
s 4.875107078498424 -5.722951787802498 10.59805886630092 -5.722951787802498
S 966.3659566135451 64.19423523051198 966.3659566135451 84.11858589915771
z" fill="none" stroke="none"></path>
<circle cx="0" cy="0" r="3.003662908294106" fill="#f7ff00">
  <animateMotion begin="-13.443848815829957s" dur="17.3s" repeatCount="indefinite">
    <mpath xlink:href="#path96"></mpath>
  </animateMotion>
</circle><path id="path97" d="M 570.3383965186082 138.42871146116508
c 0 28.26209341246981 -6.91519306900857 8.117835341879626 -15.033028410888196 8.117835341879626
S 540.2723396968319 166.69080487363487 540.2723396968319 138.42871146116508
s 6.91519306900857 -8.117835341879626 15.033028410888196 -8.117835341879626
S 570.3383965186082 110.16661804869527 570.3383965186082 138.42871146116508
z" fill="none" stroke="none"></path>
<circle cx="0" cy="0" r="3.947675732791739" fill="#f7ff00">
  <animateMotion begin="-13.626818137062731s" dur="17.3s" repeatCount="indefinite">
    <mpath xlink:href="#path97"></mpath>
  </animateMotion>
</circle><path id="path98" d="M 1103.2228926106047 188.62914299495552
c 0 32.61772106980875 -7.980931751123418 9.368919881753579 -17.349851632876995 9.368919881753579
S 1068.5231893448506 221.24686406476428 1068.5231893448506 188.62914299495552
s 7.980931751123418 -9.368919881753579 17.349851632876995 -9.368919881753579
S 1103.2228926106047 156.01142192514675 1103.2228926106047 188.62914299495552
z" fill="none" stroke="none"></path>
<circle cx="0" cy="0" r="4.480363800217211" fill="#f7ff00">
  <animateMotion begin="-3.2821561946037026s" dur="17.3s" repeatCount="indefinite">
    <mpath xlink:href="#path98"></mpath>
  </animateMotion>
</circle><path id="path99" d="M 131.8932341709181 747.940906555888
c 0 25.82296075888187 -6.318384015471095 7.417233409466069 -13.735617424937164 7.417233409466069
S 104.42199932104377 773.7638673147699 104.42199932104377 747.940906555888
s 6.318384015471095 -7.417233409466069 13.735617424937164 -7.417233409466069
S 131.8932341709181 722.1179457970061 131.8932341709181 747.940906555888
z" fill="none" stroke="none"></path>
<circle cx="0" cy="0" r="3.432359496599112" fill="#aaff00">
  <animateMotion begin="-8.569843132217015s" dur="17.3s" repeatCount="indefinite">
    <mpath xlink:href="#path99"></mpath>
  </animateMotion>
</circle></g>
</svg>