<?xml version="1.0" standalone="no"?>
<!DOCTYPE svg PUBLIC "-//W3C//DTD SVG 20010904//EN"
 "http://www.w3.org/TR/2001/REC-SVG-20010904/DTD/svg10.dtd">
<svg version="1.0" xmlns="http://www.w3.org/2000/svg"
 width="512.000000pt" height="512.000000pt" viewBox="0 0 512.000000 512.000000"
 preserveAspectRatio="xMidYMid meet">
<metadata>
Created by potrace 1.11, written by Peter Selinger 2001-2013
</metadata>
<g transform="translate(0.000000,512.000000) scale(0.100000,-0.100000)"
fill="#000000" stroke="none">
<path d="M0 2560 l0 -2560 2560 0 2560 0 0 2560 0 2560 -2560 0 -2560 0 0
-2560z m2190 1121 c86 -8 152 -21 265 -50 22 -6 54 -11 72 -11 17 0 33 -6 35
-12 4 -10 102 -13 439 -15 264 -1 455 -6 488 -12 29 -6 84 -11 121 -11 81 0
177 -17 207 -36 12 -8 37 -14 55 -14 18 0 51 -5 72 -11 26 -7 46 -8 60 -1 69
33 88 35 251 27 174 -7 216 -14 223 -33 3 -9 -46 -12 -198 -12 l-201 0 -15
-37 c-8 -21 -19 -47 -24 -58 -5 -11 -25 -60 -44 -110 -50 -132 -387 -977 -396
-995 -6 -11 -14 -2 -30 35 -45 103 -130 320 -130 331 0 7 39 108 86 225 48
118 94 234 104 259 10 25 43 108 75 185 31 77 59 146 62 153 4 9 -40 12 -199
12 l-204 0 -21 -52 c-12 -29 -39 -97 -60 -150 -21 -54 -42 -98 -48 -99 -5 -1
-37 67 -69 150 l-59 151 -205 0 c-159 0 -203 -3 -199 -12 3 -7 35 -87 72 -178
128 -313 255 -634 255 -643 0 -9 -140 -367 -147 -377 -9 -10 -28 37 -402 980
l-89 225 -768 3 -769 2 2 -832 3 -833 607 -3 c469 -2 618 0 653 10 60 17 144
98 159 153 7 25 11 165 11 378 0 185 3 337 8 337 4 -1 35 -71 69 -158 33 -86
112 -284 173 -439 l113 -283 223 0 224 0 15 33 c8 17 36 88 62 155 27 68 52
124 58 124 5 0 26 -45 48 -99 21 -54 48 -123 61 -153 l23 -55 227 -3 c209 -2
227 -1 233 15 11 33 255 648 268 678 8 17 32 75 53 130 63 159 309 767 323
798 7 15 16 27 21 27 15 0 8 -44 -23 -140 -42 -132 -58 -213 -83 -419 -7 -53
-67 -292 -83 -330 -23 -51 -63 -169 -63 -184 0 -7 -13 -39 -30 -72 -16 -33
-30 -67 -30 -76 0 -9 -7 -22 -15 -29 -8 -7 -15 -17 -15 -22 0 -6 -20 -44 -45
-85 -25 -40 -45 -76 -45 -78 0 -2 -10 -15 -22 -28 -23 -25 -34 -38 -129 -156
-50 -61 -89 -87 -149 -98 -39 -7 -162 -40 -193 -52 -53 -21 -260 -34 -442 -28
-177 6 -484 47 -511 68 -13 11 -233 28 -284 23 -19 -2 -53 -6 -75 -8 -38 -4
-187 -31 -230 -42 -25 -6 -59 -10 -249 -24 -83 -6 -152 -13 -155 -14 -12 -7
-335 15 -345 23 -17 13 -198 53 -330 71 -37 6 -80 19 -95 30 -29 20 -38 48
-62 195 -6 39 -19 102 -29 140 -45 175 -50 224 -50 505 0 295 11 405 64 616
13 55 30 128 37 163 19 99 32 109 174 131 66 10 138 25 160 32 22 8 65 20 95
26 30 6 89 18 130 27 257 53 557 70 820 46z m-260 -1026 l0 -505 -355 0 -355
0 0 505 0 505 355 0 355 0 0 -505z"/>
</g>
</svg>
