<?xml version="1.0" encoding="UTF-8"?>
<svg width="74px" height="59px" viewBox="0 0 74 59" version="1.1" xmlns="http://www.w3.org/2000/svg" xmlns:xlink="http://www.w3.org/1999/xlink" style="background: #000000;">
    <title>Untitled</title>
    <g id="Page-1" stroke="none" stroke-width="1" fill="none" fill-rule="evenodd">
        <g id="hamburger-light" fill="#FFFFFF" fill-rule="nonzero">
            <path d="M2.8125,0.36217 C2.09786685,0.395525188 1.4553308,0.807648175 1.12698541,1.44326002 C0.798640021,2.07887186 0.834382644,2.84138114 1.22074624,3.443491 C1.60710983,4.04560086 2.28538025,4.39581104 3,4.36217 L71,4.36217 C71.7212718,4.37237058 72.3921627,3.99341941 72.7557754,3.3704243 C73.1193882,2.74742919 73.1193882,1.97691081 72.7557754,1.3539157 C72.3921627,0.730920592 71.7212718,0.351969421 71,0.36217 L3,0.36217 C2.93753436,0.359238995 2.87496564,0.359238995 2.8125,0.36217 Z M2.8125,27.36217 C2.09786685,27.3955252 1.4553308,27.8076482 1.12698541,28.44326 C0.798640021,29.0788719 0.834382644,29.8413811 1.22074624,30.443491 C1.60710983,31.0456009 2.28538025,31.395811 3,31.36217 L71,31.36217 C71.7212718,31.3723706 72.3921627,30.9934194 72.7557754,30.3704243 C73.1193882,29.7474292 73.1193882,28.9769108 72.7557754,28.3539157 C72.3921627,27.7309206 71.7212718,27.3519694 71,27.36217 L3,27.36217 C2.93753436,27.359239 2.87496564,27.359239 2.8125,27.36217 Z M2.8125,54.36217 C2.09786685,54.3955252 1.4553308,54.8076482 1.12698541,55.44326 C0.798640021,56.0788719 0.834382644,56.8413811 1.22074624,57.443491 C1.60710983,58.0456009 2.28538025,58.395811 3,58.36217 L71,58.36217 C71.7212718,58.3723706 72.3921627,57.9934194 72.7557754,57.3704243 C73.1193882,56.7474292 73.1193882,55.9769108 72.7557754,55.3539157 C72.3921627,54.7309206 71.7212718,54.3519694 71,54.36217 L3,54.36217 C2.93753436,54.359239 2.87496564,54.359239 2.8125,54.36217 L2.8125,54.36217 Z" id="Shape"></path>
        </g>
    </g>
</svg>