<?xml version="1.0" encoding="UTF-8"?>
<svg width="86px" height="41px" viewBox="0 0 86 41" version="1.1" xmlns="http://www.w3.org/2000/svg" xmlns:xlink="http://www.w3.org/1999/xlink">
    <title>Untitled</title>
    <g id="Page-1" stroke="none" stroke-width="1" fill="none" fill-rule="evenodd">
        <path d="M20.1,40.2 L65.7,40.2 C76.8,40.2 85.8,31.2 85.8,20.1 L85.8,20.1 C85.8,9 76.8,0 65.7,0 L20.1,0 C9,0 0,9 0,20.1 L0,20.1 C0,31.2 9.1,40.2 20.1,40.2 Z M20.1,5.4 C28.2,5.4 34.8,12 34.8,20.1 C34.8,28.2 28.2,34.8 20.1,34.8 C12,34.8 5.4,28.2 5.4,20.1 C5.4,12 12,5.4 20.1,5.4 Z" id="Shape" fill="#000000" fill-rule="nonzero"></path>
    </g>
</svg>